<?xml version="1.0" standalone="no"?>
<!DOCTYPE svg PUBLIC "-//W3C//DTD SVG 20010904//EN"
 "http://www.w3.org/TR/2001/REC-SVG-20010904/DTD/svg10.dtd">
<svg version="1.0" xmlns="http://www.w3.org/2000/svg"
 width="195.000000pt" height="29.000000pt" viewBox="0 0 195.000000 29.000000"
 preserveAspectRatio="xMidYMid meet">

<g transform="translate(0.000000,29.000000) scale(0.100000,-0.100000)"
fill="#000000" stroke="none">
<path d="M311 241 c-17 -21 -31 -42 -31 -45 0 -3 79 -6 176 -6 l176 0 -22 -35
-22 -35 85 0 84 0 28 39 c31 45 28 69 -12 101 -24 19 -40 20 -229 20 l-202 0
-31 -39z"/>
<path d="M890 232 c-19 -25 -45 -61 -58 -79 l-23 -33 223 0 223 1 57 77 57 77
-92 3 c-87 3 -92 2 -110 -22 -46 -63 -52 -68 -85 -64 l-33 3 31 43 32 42 -94
0 -93 -1 -35 -47z"/>
<path d="M1366 205 c-31 -41 -56 -77 -56 -80 0 -3 43 -5 95 -5 l95 0 55 73
c30 41 55 77 55 80 0 4 -42 7 -94 7 l-94 0 -56 -75z"/>
<path d="M321 98 l-62 -83 181 -3 c151 -2 185 0 213 14 36 18 77 53 77 66 0 4
-47 8 -105 8 -58 0 -105 4 -105 8 0 5 7 17 15 28 29 38 20 44 -69 44 l-84 0
-61 -82z"/>
<path d="M0 90 c0 -6 55 -10 145 -10 90 0 145 4 145 10 0 6 -55 10 -145 10
-90 0 -145 -4 -145 -10z"/>
<path d="M768 68 c-45 -60 -47 -58 54 -58 l93 0 28 39 c15 22 27 42 27 45 0 3
-40 6 -89 6 -88 0 -89 0 -113 -32z"/>
<path d="M1021 61 c-17 -21 -31 -42 -31 -45 0 -3 40 -6 89 -6 l89 0 31 39 c17
21 31 42 31 45 0 3 -40 6 -89 6 l-89 0 -31 -39z"/>
<path d="M1272 80 c-37 -59 -8 -70 196 -70 l169 0 32 45 32 45 -208 0 c-197 0
-209 -1 -221 -20z"/>
<path d="M1720 90 c0 -6 45 -10 115 -10 70 0 115 4 115 10 0 6 -45 10 -115 10
-70 0 -115 -4 -115 -10z"/>
<path d="M0 55 c0 -13 18 -15 127 -13 90 2 128 7 131 16 3 9 -27 12 -127 12
-111 0 -131 -2 -131 -15z"/>
<path d="M1703 63 c-39 -15 1 -23 117 -23 109 0 130 2 130 15 0 13 -19 15
-117 14 -65 0 -124 -3 -130 -6z"/>
<path d="M0 20 c0 -13 227 -13 235 0 4 6 -37 10 -114 10 -74 0 -121 -4 -121
-10z"/>
<path d="M1665 20 c-4 -6 45 -10 139 -10 91 0 146 4 146 10 0 6 -53 10 -139
10 -83 0 -142 -4 -146 -10z"/>
</g>
</svg>
